<svg width="29" height="20" viewBox="0 0 29 20" fill="none" xmlns="http://www.w3.org/2000/svg">
<path d="M26.921 -6.10352e-05H1.90861C0.92093 -6.10352e-05 0.121948 0.89456 0.121948 2.00003V17.9998C0.121948 19.1057 0.921048 20.0001 1.90861 20.0001H26.921C27.9083 20.0001 28.7073 19.1057 28.7073 17.9998V2.00003C28.7073 0.89456 27.9082 -6.10352e-05 26.921 -6.10352e-05ZM6.40299 3.99991H7.26837C7.9226 3.99991 8.46878 4.41422 8.7809 5.00012H6.40299V3.99991ZM3.6951 6C3.6951 4.89453 4.49426 3.99991 5.48176 3.99991H5.5098V9.99998H5.48176C4.49426 9.99998 3.6951 9.10555 3.6951 8.00009V6ZM7.26837 16H3.6951V14H7.26837V16ZM7.26837 9.99991H6.40299V8.00002H9.05491C9.05485 9.10549 8.25587 9.99991 7.26837 9.99991ZM9.05485 7.00001H6.40293V5.99993H9.05485V7.00001ZM13.2247 16H9.65153V14H13.2247V16ZM19.1793 16H15.6047V14H19.1793V16ZM25.1343 16H21.561V14H25.1343V16ZM22.4546 9.99991C21.7653 9.99991 21.1423 9.69904 20.6677 9.22261C20.1933 9.69911 19.5703 9.99991 18.8813 9.99991C17.4015 9.99991 16.2013 8.6561 16.2013 7.00001C16.2013 5.34373 17.4015 3.99991 18.8813 3.99991C19.5703 3.99991 20.1933 4.30065 20.6677 4.77741C21.1423 4.30065 21.7653 3.99991 22.4546 3.99991C23.9338 3.99991 25.1342 5.34373 25.1342 7.00001C25.1343 8.65616 23.9339 9.99991 22.4546 9.99991Z" fill="#0468FF"/>
</svg>
