<svg width="22" height="22" viewBox="0 0 22 22" fill="none" xmlns="http://www.w3.org/2000/svg">
<path d="M11.4194 5.93492L11.4385 5.90737C11.601 5.66789 11.5331 5.49102 11.4244 5.39555L9.72055 4.33621C9.66003 4.29513 9.61052 4.23982 9.57635 4.17514C9.54218 4.11047 9.52441 4.0384 9.52459 3.96525C9.52459 3.72045 9.66953 3.53575 9.99885 3.44403C11.0497 3.1529 14.7455 3.00045 16.0011 3.00045C16.4369 3.00045 17.1876 2.99857 17.8606 3.01704L17.8315 2.98824C15.9902 1.40205 13.6004 0.444763 10.9878 0.444763C5.16452 0.444763 0.444763 5.20302 0.444763 11.0735C0.444763 13.6543 1.35666 16.0196 2.87398 17.8606C4.19815 15.9414 7.46758 11.2075 8.18445 10.2411C9.01026 9.12702 10.8923 6.64866 11.2113 6.22855L11.2269 6.20946L11.4194 5.93523V5.93492ZM4.30897 19.3529C6.18506 20.7857 8.48127 21.5597 10.8419 21.5552C16.759 21.5552 21.5552 16.8 21.5552 10.9336C21.5578 9.2191 21.1405 7.53006 20.3396 6.01412L20.3402 6.01506C20.7093 5.66257 21.1344 5.10473 20.8546 4.40602C20.7679 4.19815 20.3515 3.72608 20.2441 3.61151L20.2589 3.65189C20.5196 4.43231 20.0037 4.92097 19.6331 5.25374C19.4299 5.43655 16.7099 7.97941 13.5193 10.7455C10.7076 13.1828 7.56212 15.6634 5.74052 17.0157C3.17763 18.9181 2.67864 19.1945 2.67864 19.1945C2.59666 19.2357 2.50674 19.2586 2.41506 19.2618C2.25854 19.2618 2.12268 19.1917 2.0369 19.0815L2.03408 19.0765L2.02814 19.1582C2.30268 19.599 2.75847 20.1108 3.02362 20.1108C3.10688 20.1108 3.21989 20.0795 3.28782 20.0441C3.28782 20.0441 3.48848 19.9327 4.30897 19.3523" fill="#E2001A"/>
</svg>
